{"title":"Tere Mere Sapne (1996) DVDRip 480p XviD E-Subs Hindi Movie","uid":8145608,"size":1556022585,"categoryP":"video","categoryS":"movies","magnet":"?xt=urn:btih:5ccf8c9e2fb623567c98c07b2a19c941e8068d8e&amp;dn=Tere+Mere+Sapne+%281996%29+DVDRip+480p+XviD+E-Subs+Hindi+Movie&amp;tr=udp%3A%2F%2Ftracker.openbittorrent.com%3A80&amp;tr=udp%3A%2F%2Fopen.demonii.com%3A1337&amp;tr=udp%3A%2F%2Ftracker.coppersurfer.tk%3A6969&amp;tr=udp%3A%2F%2Fexodus.desync.com%3A6969","seeders":1,"leechers":1,"uploader":"shaan666","files":-1,"time":1360914734,"description":"Tere Mere Sapne (1996)\n &lt;a href=&quot;\nhttp://www.shotpix.com/images/66976302321502974319.jpg&quot; rel=&quot;nofollow&quot; target=&quot;_NEW&quot;&gt;\nhttp://www.shotpix.com/images/66976302321502974319.jpg&lt;/a&gt;\n\n\n\nINFO\n\n[CODE]Format : AVI\nFormat/Info : Audio Video Interleave\nFile size : 1.45 GiB\nDuration : 2h 27mn\nOverall bit rate : 1 403 Kbps\nWriting application : VirtualDubMod 1.5.10.2 (build 2542/release)\nWriting library : VirtualDubMod build 2542/release\n\nVideo\nID : 0\nFormat : MPEG-4 Visual\nFormat profile : Advanced Simple@L5\nFormat settings, BVOP : 2\nFormat settings, QPel : Yes\nFormat settings, GMC : No warppoints\nFormat settings, Matrix : Custom\nCodec ID : XVID\nCodec ID/Hint : XviD\nDuration : 2h 27mn\nBit rate : 1 202 Kbps\nWidth : 720 pixels\nHeight : 368 pixels\nDisplay aspect ratio : 1.957\nFrame rate : 23.976 fps\nColor space : YUV\nChroma subsampling : 4:2:0\nBit depth : 8 bits\nScan type : Progressive\nCompression mode : Lossy\nBits/(Pixel*Frame) : 0.189\nStream size : 1.24 GiB (86%)\nWriting library : XviD 1.2.1 (UTC 2008-12-04)\n\nAudio\nID : 1\nFormat : AC-3\nFormat/Info : Audio Coding 3\nMode extension : CM (complete main)\nCodec ID : 2000\nDuration : 2h 27mn\nBit rate mode : Constant\nBit rate : 192 Kbps\nChannel(s) : 6 channels\nChannel positions : Front: L C R, Side: L R, LFE\nSampling rate : 48.0 KHz\nBit depth : 16 bits\nCompression mode : Lossy\nDelay relative to video : 2s 0ms\nStream size : 203 MiB (14%)\nAlignment : Split accross interleaves\nInterleave, duration : 42 ms (1.00 video frame)\nInterleave, preload duration : 500 ms[/CODE]\n\n\n\nSCREEN SHOTS\n &lt;a href=&quot;\nhttp://www.shotpix.com/images/76447572108173785354.png&quot; rel=&quot;nofollow&quot; target=&quot;_NEW&quot;&gt;\nhttp://www.shotpix.com/images/76447572108173785354.png&lt;/a&gt;\n &lt;a href=&quot;\nhttp://www.shotpix.com/images/36840171299779864120.png&quot; rel=&quot;nofollow&quot; target=&quot;_NEW&quot;&gt;\nhttp://www.shotpix.com/images/36840171299779864120.png&lt;/a&gt;\n &lt;a href=&quot;\nhttp://www.shotpix.com/images/12760531874537932557.png&quot; rel=&quot;nofollow&quot; target=&quot;_NEW&quot;&gt;\nhttp://www.shotpix.com/images/12760531874537932557.png&lt;/a&gt;\n &lt;a href=&quot;\nhttp://www.shotpix.com/images/66454594679410419893.png&quot; rel=&quot;nofollow&quot; target=&quot;_NEW&quot;&gt;\nhttp://www.shotpix.com/images/66454594679410419893.png&lt;/a&gt;\n &lt;a href=&quot;\nhttp://www.shotpix.com/images/52725614283138321174.png&quot; rel=&quot;nofollow&quot; target=&quot;_NEW&quot;&gt;\nhttp://www.shotpix.com/images/52725614283138321174.png&lt;/a&gt;\n &lt;a href=&quot;\nhttp://www.shotpix.com/images/36854650537812500661.png&quot; rel=&quot;nofollow&quot; target=&quot;_NEW&quot;&gt;\nhttp://www.shotpix.com/images/36854650537812500661.png&lt;/a&gt;\n &lt;a href=&quot;\nhttp://www.shotpix.com/images/83718180510995490468.png&quot; rel=&quot;nofollow&quot; target=&quot;_NEW&quot;&gt;\nhttp://www.shotpix.com/images/83718180510995490468.png&lt;/a&gt;\n &lt;a href=&quot;\nhttp://www.shotpix.com/images/55326012490360967364.png&quot; rel=&quot;nofollow&quot; target=&quot;_NEW&quot;&gt;\nhttp://www.shotpix.com/images/55326012490360967364.png&lt;/a&gt;\n &lt;a href=&quot;\nhttp://www.shotpix.com/images/84977093931203912493.png&quot; rel=&quot;nofollow&quot; target=&quot;_NEW&quot;&gt;\nhttp://www.shotpix.com/images/84977093931203912493.png&lt;/a&gt;\n &lt;a href=&quot;\nhttp://www.shotpix.com/images/31282844333175031771.png&quot; rel=&quot;nofollow&quot; target=&quot;_NEW&quot;&gt;\nhttp://www.shotpix.com/images/31282844333175031771.png&lt;/a&gt;","torrent":{"xt":"urn:btih:5ccf8c9e2fb623567c98c07b2a19c941e8068d8e","amp;dn":"Tere+Mere+Sapne+%281996%29+DVDRip+480p+XviD+E-Subs+Hindi+Movie","amp;tr":["udp%3A%2F%2Ftracker.openbittorrent.com%3A80","udp%3A%2F%2Fopen.demonii.com%3A1337","udp%3A%2F%2Ftracker.coppersurfer.tk%3A6969","udp%3A%2F%2Fexodus.desync.com%3A6969"],"infoHash":"5ccf8c9e2fb623567c98c07b2a19c941e8068d8e","infoHashBuffer":{"type":"Buffer","data":[92,207,140,158,47,182,35,86,124,152,192,123,42,25,201,65,232,6,141,142]},"announce":[],"urlList":[]}}